<svg width="16" height="16" viewBox="0 0 16 16" fill="none" xmlns="http://www.w3.org/2000/svg">
<path fill-rule="evenodd" clip-rule="evenodd" d="M14.0116 8.76558L14.0116 13.7655L12.3654 12.1193C11.1985 13.3564 9.51601 14.092 7.6847 13.9961C4.72931 13.8412 2.38581 11.5728 2.04207 8.73224L3.89581 8.89492C4.28818 10.6996 5.84739 12.0929 7.78063 12.1942C9.08039 12.2623 10.273 11.732 11.091 10.8441L9.0116 8.76558L14.0116 8.76558ZM8.31273 2.01251C11.2285 2.16532 13.5487 4.37541 13.9405 7.1625L12.0808 7.00015C11.6519 5.24659 10.1159 3.90511 8.22025 3.80576C6.92071 3.73766 5.72825 4.2678 4.91028 5.15538L6.99354 7.23923L1.99354 7.23923L1.99354 2.23934L3.63742 3.88357C4.80412 2.64993 6.48424 1.91668 8.31273 2.01251Z" fill="#9AA7B0" fill-opacity="0.8"/>
</svg>
