<svg width="84" height="84" viewBox="0 0 84 84" fill="none" xmlns="http://www.w3.org/2000/svg">
	<path d="M31.2 33.6001L32.48 10.5601L66 18.0001L31.2 33.6001Z" fill="url(#paint0_linear)"/>
	<path d="M31.2 33.6001L32.48 10.5601L11.28 21.3601L6 52.0001L31.2 33.6001Z" fill="url(#paint1_linear)"/>
	<path d="M73.84 42.4L80 35L66 18L31.2 33.6L6 52L28.56 78.16L66.08 47.6L73.84 42.4Z" fill="url(#paint2_linear)"/>
	<path d="M65.9998 47.5999V65.9999H43.4398L35.2798 72.6399L65.9998 65.9999L73.8398 42.3999L65.9998 47.5999Z" fill="url(#paint3_linear)"/>
	<path d="M18 18H66V66H18V18Z" fill="black"/>
	<path d="M24 57H42V60H24V57Z" fill="white"/>
	<path d="M24.0011 33.1166C23.924 28.1804 27.8575 24.0926 32.7166 24.0155C32.8708 24.0155 32.9479 24.0155 33.1022 24.0155C35.6474 23.8613 38.1926 24.8639 39.9666 26.715L37.5756 29.4916C36.4187 28.2576 34.799 27.5634 33.1022 27.4863C30.1713 27.4863 28.0118 29.9544 28.0118 32.9624V33.0395C28.0118 36.0475 30.0942 38.5156 33.1022 38.5156C35.1075 38.5156 36.3416 37.7443 37.7299 36.4331L40.1208 38.9012C38.3469 40.9836 35.6474 42.1406 32.9479 41.9863C28.0889 42.0634 24.0782 38.1299 24.0011 33.2709C24.0011 33.2709 24.0011 33.1937 24.0011 33.1166Z" fill="white"/>
	<path d="M42.0011 33.1166C41.924 28.1804 45.8575 24.0926 50.7166 24.0155C50.8708 24.0155 50.9479 24.0155 51.1022 24.0155C53.6474 23.8613 56.1926 24.8639 57.9666 26.715L55.5756 29.4916C54.4187 28.2576 52.799 27.5634 51.1022 27.4863C48.1713 27.4863 46.0118 29.9544 46.0118 32.9624V33.0395C46.0118 36.0475 48.0942 38.5156 51.1022 38.5156C53.1075 38.5156 54.3416 37.7443 55.7299 36.4331L58.1208 38.9012C56.3469 40.9836 53.6474 42.1406 50.9479 41.9863C46.0889 42.0634 42.0782 38.1299 42.0011 33.2709C42.0011 33.2709 42.0011 33.1937 42.0011 33.1166Z" fill="white"/>
	<rect x="51" y="31.2598" width="7.11" height="3.48" fill="white"/>
	<rect x="54.5098" y="33" width="3.6" height="5.88" fill="white"/>
	<defs>
		<linearGradient id="paint0_linear" x1="31.208" y1="22.1012" x2="71.2239" y2="22.1012" gradientUnits="userSpaceOnUse">
			<stop offset="0.0955866" stop-color="#ECCB45"/>
			<stop offset="0.9" stop-color="#E32581"/>
		</linearGradient>
		<linearGradient id="paint1_linear" x1="20.9461" y1="42.8319" x2="13.9794" y2="-3.91258" gradientUnits="userSpaceOnUse">
			<stop offset="0.0955308" stop-color="#9D25AE"/>
			<stop offset="0.9168" stop-color="#CA5C59"/>
		</linearGradient>
		<linearGradient id="paint2_linear" x1="66.967" y1="18.7424" x2="2.92534" y2="86.3781" gradientUnits="userSpaceOnUse">
			<stop offset="0.0955866" stop-color="#ECCB45"/>
			<stop offset="0.9" stop-color="#E32581"/>
		</linearGradient>
		<linearGradient id="paint3_linear" x1="48.6351" y1="56.6852" x2="69.7919" y2="59.6957" gradientUnits="userSpaceOnUse">
			<stop offset="0.0955308" stop-color="#9D25AE"/>
			<stop offset="0.9168" stop-color="#CA5C59"/>
		</linearGradient>
	</defs>
</svg>
