<svg width="16" height="16" viewBox="0 0 16 16" fill="none" xmlns="http://www.w3.org/2000/svg">
<path d="M16 0H0V16H16V0Z" fill="url(#paint0_linear)"/>
<path d="M15 1H1V15H15V1Z" fill="black"/>
<path d="M9 12H3V13H9V12Z" fill="white"/>
<path d="M6.90112 5.81631C6.90112 4.11631 8.20112 2.71631 10.0012 2.71631C11.1012 2.71631 11.8012 3.11631 12.4012 3.61631L11.6012 4.61631C11.1012 4.21631 10.6012 3.91631 10.0012 3.91631C9.00117 3.91631 8.30112 4.71631 8.30112 5.81631C8.30112 6.81631 9.00117 7.71631 10.0012 7.71631C10.7012 7.71631 11.1012 7.41631 11.6012 7.01631L12.4012 7.81631C11.8012 8.51631 11.1012 8.91631 10.0012 8.91631C8.20112 8.91631 6.90112 7.51631 6.90112 5.81631Z" fill="white"/>
<path d="M5.88237 3.81006V2.71631H2.90112V3.81006H3.73862V7.58506H2.90112V8.67881H5.88237V7.58506H5.05112V3.81006H5.88237Z" fill="white"/>
<defs>
<linearGradient id="paint0_linear" x1="16" y1="4.76837e-07" x2="-4.76837e-07" y2="16" gradientUnits="userSpaceOnUse">
<stop stop-color="#FC4AD5"/>
<stop offset="1" stop-color="#FCF84A"/>
</linearGradient>
</defs>
</svg>
