<svg width="16" height="16" viewBox="0 0 16 16" fill="none" xmlns="http://www.w3.org/2000/svg">
<path fill-rule="evenodd" clip-rule="evenodd" d="M1 16H16V9H1V16Z" fill="#F4AF3D" fill-opacity="0.7"/>
<path fill-rule="evenodd" clip-rule="evenodd" d="M10.786 13.8311C10.786 13.7439 10.7976 13.51 10.7976 13.4105C10.7976 12.955 10.6256 12.7683 10.1493 12.7683H10V12.2305H10.1493C10.6256 12.2305 10.7976 12.0378 10.7976 11.5822C10.7976 11.4828 10.786 11.25 10.786 11.1617C10.786 10.5661 11.0447 10.1922 12.0899 10L12.2098 10.5819C11.5209 10.7752 11.5182 10.8406 11.5182 11.2672C11.5182 11.3844 11.5182 11.5767 11.5182 11.6994C11.5182 12.155 11.3821 12.3767 11.003 12.5C11.3877 12.6278 11.5182 12.8444 11.5182 13.3C11.5182 13.4228 11.5182 13.615 11.5182 13.7322C11.5182 14.1583 11.5209 14.2056 12.2098 14.3984L12.0899 15C11.0447 14.8067 10.786 14.4328 10.786 13.8311Z" fill="#231F20" fill-opacity="0.7"/>
<path fill-rule="evenodd" clip-rule="evenodd" d="M14.214 13.8311C14.214 13.7439 14.2024 13.51 14.2024 13.4106C14.2024 12.955 14.3744 12.7683 14.8507 12.7683H15V12.2306H14.8507C14.3744 12.2306 14.2024 12.0378 14.2024 11.5822C14.2024 11.4828 14.214 11.25 14.214 11.1617C14.214 10.5661 13.9553 10.1922 12.9101 10L12.7902 10.5819C13.4791 10.7752 13.4818 10.8406 13.4818 11.2672C13.4818 11.3844 13.4818 11.5767 13.4818 11.6994C13.4818 12.155 13.6179 12.3767 13.997 12.5C13.6123 12.6278 13.4818 12.8444 13.4818 13.3C13.4818 13.4228 13.4818 13.615 13.4818 13.7322C13.4818 14.1583 13.4791 14.2056 12.7902 14.3984L12.9101 15C13.9553 14.8067 14.214 14.4328 14.214 13.8311Z" fill="#231F20" fill-opacity="0.7"/>
<path fill-rule="evenodd" clip-rule="evenodd" d="M7 1L3 5H7V1Z" fill="#9AA7B0" fill-opacity="0.8"/>
<path fill-rule="evenodd" clip-rule="evenodd" d="M8 1V6H3V8H13V1H8Z" fill="#9AA7B0" fill-opacity="0.8"/>
<path fill-rule="evenodd" clip-rule="evenodd" d="M2.39514 13.5877C2.62445 13.8379 2.83788 14 3.28688 14C3.81323 14 4.00005 13.5877 4.00005 13.2976V10H5.00005V13.5877C5.00005 14.3196 4.32676 15 3.45005 15C2.62905 15 2.15005 14.7626 1.80005 14.3196L2.39514 13.5877Z" fill="#231F20" fill-opacity="0.7"/>
<path fill-rule="evenodd" clip-rule="evenodd" d="M6.97277 11.5015C6.97277 11.1331 7.284 11 7.845 11C7.85033 11 8.23533 11 9 11V10C8.26267 10 7.88267 10 7.86 10C6.778 10 6 10.4592 6 11.45C6 12.3145 6.41956 12.6905 7.47125 12.9161C8.24159 13.0813 8.49616 13.2286 8.49616 13.548C8.49616 13.8674 8.13843 14 7.47125 14C7.46059 14 7.07017 14 6.3 14V15C7.0755 15 7.46592 15 7.47125 15C9.5 15 9.5 14 9.5 13.548C9.5 12.9161 9.02026 12.4207 8.15869 12.1469C7.29712 11.873 6.97277 11.87 6.97277 11.5015Z" fill="#231F20" fill-opacity="0.7"/>
</svg>
