<svg width="16" height="16" viewBox="0 0 16 16" fill="none" xmlns="http://www.w3.org/2000/svg">
<path d="M16 9H1V16H16V9Z" fill="#F98B9E" fill-opacity="0.7"/>
<path fill-rule="evenodd" clip-rule="evenodd" d="M7 1L3 5H7V1Z" fill="#9AA7B0" fill-opacity="0.8"/>
<path fill-rule="evenodd" clip-rule="evenodd" d="M8 1V6H3V8H13V1H8Z" fill="#9AA7B0" fill-opacity="0.8"/>
<path fill-rule="evenodd" clip-rule="evenodd" d="M2.8338 11.5015C2.8338 11.1331 3.10057 11 3.58143 11C3.586 11 3.916 11 4.57143 11V10C3.93943 10 3.61371 10 3.59429 10C2.66686 10 2 10.4592 2 11.45C2 12.3145 2.35962 12.6905 3.26107 12.9161C3.92136 13.0813 4.13956 13.2286 4.13956 13.548C4.13956 13.8674 3.83294 14 3.26107 14C3.25193 14 2.91729 14 2.25714 14V15C2.92186 15 3.2565 15 3.26107 15C5 15 5 14 5 13.548C5 12.9161 4.5888 12.4207 3.85031 12.1469C3.11182 11.873 2.8338 11.87 2.8338 11.5015Z" fill="#231F20" fill-opacity="0.7"/>
<path fill-rule="evenodd" clip-rule="evenodd" d="M9.8338 11.5015C9.8338 11.1331 10.1006 11 10.5814 11C10.586 11 10.916 11 11.5714 11V10C10.9394 10 10.6137 10 10.5943 10C9.66686 10 9 10.4592 9 11.45C9 12.3145 9.35962 12.6905 10.2611 12.9161C10.9214 13.0813 11.1396 13.2286 11.1396 13.548C11.1396 13.8674 10.8329 14 10.2611 14C10.2519 14 9.91729 14 9.25714 14V15C9.92186 15 10.2565 15 10.2611 15C12 15 12 14 12 13.548C12 12.9161 11.5888 12.4207 10.8503 12.1469C10.1118 11.873 9.8338 11.87 9.8338 11.5015Z" fill="#231F20" fill-opacity="0.7"/>
<path fill-rule="evenodd" clip-rule="evenodd" d="M12.8338 11.5015C12.8338 11.1331 13.1006 11 13.5814 11C13.586 11 13.916 11 14.5714 11V10C13.9394 10 13.6137 10 13.5943 10C12.6669 10 12 10.4592 12 11.45C12 12.3145 12.3596 12.6905 13.2611 12.9161C13.9214 13.0813 14.1396 13.2286 14.1396 13.548C14.1396 13.8674 13.8329 14 13.2611 14C13.2519 14 12.9173 14 12.2571 14V15C12.9219 15 13.2565 15 13.2611 15C15 15 15 14 15 13.548C15 12.9161 14.5888 12.4207 13.8503 12.1469C13.1118 11.873 12.8338 11.87 12.8338 11.5015Z" fill="#231F20" fill-opacity="0.7"/>
<path fill-rule="evenodd" clip-rule="evenodd" d="M5 12.501C5 11 5.931 10 7.256 10C8.20239 10 8.55 10.311 8.969 10.753L8.4267 11.4271C8.0767 11.0681 7.75 11 7.25 11C6.418 11 6 11.7379 6 12.487C6 13.2361 6.412 14 7.25 14C7.787 14 8.0517 13.8934 8.4267 13.5064L9 14.144C8.544 14.669 8.19733 15 7.225 15C5.949 15 5 14.002 5 12.501Z" fill="#231F20" fill-opacity="0.7"/>
</svg>
