<svg width="16" height="16" viewBox="0 0 16 16" fill="none" xmlns="http://www.w3.org/2000/svg">
<path fill-rule="evenodd" clip-rule="evenodd" d="M1 16H16V9H1V16Z" fill="#40E076" fill-opacity="0.7"/>
<path fill-rule="evenodd" clip-rule="evenodd" d="M4.27344 15H5.26172V14.1667H4.27344V15ZM4.75 10C3.78312 10 3 10.7458 3 11.6667H4C4 11.2083 4.26875 11 4.75 11C5.23125 11 5.5 11.2083 5.5 11.6667C5.5 12.5 4.27344 12.3958 4.27344 13.75H5.26172C5.26172 12.8125 6.5 12.7083 6.5 11.6667C6.5 10.7458 5.71688 10 4.75 10Z" fill="#231F20" fill-opacity="0.7"/>
<path fill-rule="evenodd" clip-rule="evenodd" d="M7 1L3 5H7V1Z" fill="#9AA7B0" fill-opacity="0.8"/>
<path fill-rule="evenodd" clip-rule="evenodd" d="M8 1V6H3V8H13V1H8Z" fill="#9AA7B0" fill-opacity="0.8"/>
</svg>
