<svg width="32" height="32" viewBox="0 0 32 32" fill="none" xmlns="http://www.w3.org/2000/svg">
    <path d="M27.69 15.6719C27.69 16.5625 27.0806 17.1719 26.1744 17.1719H11.4868L8.86183 17.0625L12.6431 20.4376L14.9243 22.7656C15.2056 23.0312 15.3618 23.4062 15.3618 23.8282C15.3618 24.6406 14.7524 25.25 13.9243 25.25C13.5181 25.25 13.1587 25.1094 12.8306 24.7812L4.81495 16.7969C4.50245 16.4844 4.33057 16.0938 4.33057 15.6719C4.33057 15.2656 4.50245 14.875 4.81495 14.5625L12.8306 6.57812C13.1587 6.26562 13.5181 6.10938 13.9243 6.10938C14.7524 6.10938 15.3618 6.71876 15.3618 7.53126C15.3618 7.95312 15.2056 8.32811 14.9243 8.59375L12.6431 10.9219L8.84621 14.2969L11.4868 14.1875H26.1744C27.0806 14.1875 27.69 14.7969 27.69 15.6719Z" fill="#AFB1B3"/>
</svg>
