<svg width="32" height="32" viewBox="0 0 32 32" fill="none" xmlns="http://www.w3.org/2000/svg">
    <path d="M21.6559 18.3446L18.5447 21.4559L27.3722 30.2834L30.4835 27.1721L21.6559 18.3446Z" fill="#AFB1B3"/>
    <path fill-rule="evenodd" clip-rule="evenodd" d="M13.5 25C7.14873 25 2 19.8513 2 13.5C2 7.14873 7.14873 2 13.5 2C19.8513 2 25 7.14873 25 13.5C25 19.8513 19.8513 25 13.5 25ZM13.5 21C17.6421 21 21 17.6421 21 13.5C21 9.35786 17.6421 6 13.5 6C9.35786 6 6 9.35786 6 13.5C6 17.6421 9.35786 21 13.5 21Z" fill="#AFB1B3"/>
</svg>
