<svg width="32" height="32" viewBox="0 0 32 32" fill="none" xmlns="http://www.w3.org/2000/svg">
    <path fill-rule="evenodd" clip-rule="evenodd" d="M25.8995 25.8995C20.4322 31.3668 11.5678 31.3668 6.1005 25.8995C0.633165 20.4322 0.633165 11.5678 6.1005 6.1005C11.5678 0.633165 20.4322 0.633165 25.8995 6.1005C31.3668 11.5678 31.3668 20.4322 25.8995 25.8995ZM16 26.4C21.7438 26.4 26.4 21.7438 26.4 16C26.4 10.2562 21.7438 5.6 16 5.6C10.2562 5.6 5.6 10.2562 5.6 16C5.6 21.7438 10.2562 26.4 16 26.4Z" fill="#AFB1B3"/>
    <path d="M17.5998 9.39999H14.3998V17.4H17.5998V9.39999Z" fill="#AFB1B3"/>
    <path d="M20.9529 22.009L22.7883 19.3877L16.2351 14.7991L14.3997 17.4203L20.9529 22.009Z" fill="#AFB1B3"/>
</svg>
