<svg width="66" height="66" viewBox="0 0 66 66" fill="none" xmlns="http://www.w3.org/2000/svg">
    <rect width="66" height="66" fill="url(#paint0_linear)"/>
    <path d="M3 3H63V63H3V3Z" fill="black"/>
    <path d="M10.5 51.7H33V55.5H10.5V51.7Z" fill="white"/>
    <path d="M8.90001 21.9C8.80001 15.5 13.9 10.2 20.2 10.1C20.4 10.1 20.5 10.1 20.7 10.1C24 9.9 27.3 11.2 29.6 13.6L26.5 17.2C25 15.6 22.9 14.7 20.7 14.6C16.9 14.6 14.1 17.8 14.1 21.7V21.8C14.1 25.7 16.8 28.9 20.7 28.9C23.3 28.9 24.9 27.9 26.7 26.2L29.8 29.4C27.5 32.1 24 33.6 20.5 33.4C14.2 33.5 9.00001 28.4 8.90001 22.1C8.90001 22.1 8.90001 22 8.90001 21.9Z" fill="white"/>
    <path d="M31.9 21.9C31.8 15.5 36.9 10.2 43.2 10.1C43.4 10.1 43.5 10.1 43.7 10.1C47 9.9 50.3 11.2 52.6 13.6L49.5 17.2C48 15.6 45.9 14.7 43.7 14.6C39.9 14.6 37.1 17.8 37.1 21.7V21.8C37.1 25.7 39.8 28.9 43.7 28.9C46.3 28.9 47.9 27.9 49.7 26.2L53.2 29.3C50.9 32 47.1 33.6 43.6 33.5C37.3 33.6 32.1 28.5 32 22.2C31.9 22.1 31.9 22 31.9 21.9Z" fill="white"/>
    <path d="M48.5 27.3L48.4 24.4H43.6V20.4L53.1 20.5V29.3" fill="white"/>
    <defs>
        <linearGradient id="paint0_linear" x1="33" y1="0" x2="33" y2="66" gradientUnits="userSpaceOnUse">
            <stop offset="0.078125" stop-color="#CA5C59"/>
            <stop offset="0.921875" stop-color="#9D25AE"/>
        </linearGradient>
    </defs>
</svg>
