<svg width="64" height="64" viewBox="0 0 64 64" fill="none" xmlns="http://www.w3.org/2000/svg">
    <path d="M8 8H56V56H8V8Z" fill="black"/>
    <path d="M14 46.9597H32V49.9997H14V46.9597Z" fill="white"/>
    <path d="M14.0011 23.1166C13.924 18.1804 17.8575 14.0926 22.7166 14.0155C22.8708 14.0155 22.9479 14.0155 23.1022 14.0155C25.6474 13.8613 28.1926 14.8639 29.9666 16.715L27.5756 19.4916C26.4187 18.2576 24.799 17.5634 23.1022 17.4863C20.1713 17.4863 18.0118 19.9544 18.0118 22.9624V23.0395C18.0118 26.0475 20.0942 28.5156 23.1022 28.5156C25.1075 28.5156 26.3416 27.7443 27.7299 26.4331L30.1208 28.9012C28.3469 30.9836 25.6474 32.1406 22.9479 31.9863C18.0889 32.0634 14.0782 28.1299 14.0011 23.2709C14.0011 23.2709 14.0011 23.1937 14.0011 23.1166Z" fill="white"/>
    <path d="M32.0011 23.1166C31.924 18.1804 35.8575 14.0926 40.7166 14.0155C40.8708 14.0155 40.9479 14.0155 41.1022 14.0155C43.6474 13.8613 46.1926 14.8639 47.9666 16.715L45.5756 19.4916C44.4187 18.2576 42.799 17.5634 41.1022 17.4863C38.1713 17.4863 36.0118 19.9544 36.0118 22.9624V23.0395C36.0118 26.0475 38.0942 28.5156 41.1022 28.5156C43.1075 28.5156 44.3416 27.7443 45.7299 26.4331L48.1208 28.9012C46.3469 30.9836 43.6474 32.1406 40.9479 31.9863C36.0889 32.0634 32.0782 28.1299 32.0011 23.2709C32.0011 23.2709 32.0011 23.1937 32.0011 23.1166Z" fill="white"/>
    <rect x="41" y="21.2598" width="7.11" height="3.48" fill="white"/>
    <rect x="44.5098" y="23" width="3.6" height="5.88" fill="white"/>
</svg>
