<svg width="60" height="60" viewBox="0 0 60 60" fill="none" xmlns="http://www.w3.org/2000/svg">
    <path d="M0 0H60V60H0V0Z" fill="black"/>
    <path d="M7.50001 48.7H30V52.5H7.50001V48.7Z" fill="white"/>
    <path d="M5.90001 18.9C5.80001 12.5 10.9 7.2 17.2 7.1C17.4 7.1 17.5 7.1 17.7 7.1C21 6.9 24.3 8.2 26.6 10.6L23.5 14.2C22 12.6 19.9 11.7 17.7 11.6C13.9 11.6 11.1 14.8 11.1 18.7V18.8C11.1 22.7 13.8 25.9 17.7 25.9C20.3 25.9 21.9 24.9 23.7 23.2L26.8 26.4C24.5 29.1 21 30.6 17.5 30.4C11.2 30.5 6.00001 25.4 5.90001 19.1C5.90001 19.1 5.90001 19 5.90001 18.9Z" fill="white"/>
    <path d="M28.9 18.9C28.8 12.5 33.9 7.2 40.2 7.1C40.4 7.1 40.5 7.1 40.7 7.1C44 6.9 47.3 8.2 49.6 10.6L46.5 14.2C45 12.6 42.9 11.7 40.7 11.6C36.9 11.6 34.1 14.8 34.1 18.7V18.8C34.1 22.7 36.8 25.9 40.7 25.9C43.3 25.9 44.9 24.9 46.7 23.2L50.2 26.3C47.9 29 44.1 30.6 40.6 30.5C34.3 30.6 29.1 25.5 29 19.2C28.9 19.1 28.9 19 28.9 18.9Z" fill="white"/>
    <path d="M45.5 24.3L45.4 21.4H40.6V17.4L50.1 17.5V26.3" fill="white"/>
</svg>
