<svg width="542" height="84" viewBox="0 0 542 84" fill="none" xmlns="http://www.w3.org/2000/svg">
	<path d="M120 33L126.5 25C125.716 24.2157 120 18 108 18C94 18 84 26.7843 84 42C84 56.2745 94 66 108 66C119 66 126.5 58 126.5 58C126.5 57.8431 120 51 120 51C120 51 116 56.5 108 56.5C100 56.5 94.5 49.5 94.5 42C94.5 33.5 99.5 27.5 108 27.5C114.5 27.5 120 33 120 33Z" fill="black"/>
	<path d="M146.5 28C136 28 127 36 127 47C127 58 136 66 146.5 66C157 66 166 58 166 47C166 36 157 28 146.5 28ZM146.5 57C140.876 57 137 52.6237 137 47C137 41.3763 140.876 37 146.5 37C152.124 37 156 41.3763 156 47C156 52.6237 152.124 57 146.5 57Z" fill="black"/>
	<path d="M335.5 28C325 28 316 36 316 47C316 58 325 66 335.5 66C346 66 355 58 355 47C355 36 346 28 335.5 28ZM335.5 57C329.876 57 326 52.6237 326 47C326 41.3763 329.876 37 335.5 37C341.124 37 345 41.3763 345 47C345 52.6237 341.124 57 335.5 57Z" fill="black"/>
	<path d="M208 16H198V66H208V16Z" fill="black"/>
	<path d="M186 28C177.021 28 170 34.654 170 47C170 58.6245 177.101 66 186 66C194.979 66 203 55.1772 203 47C203 36.4979 194.979 28 186 28ZM189 57C184.19 57 180 52.6118 180 47C180 41.3882 184.19 37 189 37C194.932 37 198 41.3882 198 47C198 52.6118 194.612 57 189 57Z" fill="black"/>
	<path d="M230.5 57.5C222.627 57.4197 222 50.5 222 50.5H248C248 49.9376 248 48.9641 248 48C248 46.9556 248 46.5803 248 46.5C248 37 242.006 28 231 28C230.598 28 229.161 28 229 28C219.038 28 212 35.9133 212 47C212 58.408 220.458 66 230.5 66C236.686 66 242.127 63.9112 245.501 59.0909L239.5 53.5C239.42 53.5803 235.883 57.5803 230.5 57.5ZM230 36C234.499 36 238 40.3044 238 44H222C221.92 40.3044 225.742 36 230 36Z" fill="black"/>
	<path d="M277 38.5V47.5H287V50.75V54C287 54 284 56.5 277 56.5C270 56.5 263.5 50 263.5 42C263.5 34 268.727 27.6561 277 27.5C283.634 27.3439 289 32 289 32L295.5 24.5C294.72 23.7195 288.941 18 277 18C263.81 18 253 26.9366 253 42C253 56.2049 263.537 66 277.039 66C288.434 66 297 58.5 297 58.5V38.5H277Z" fill="black"/>
	<path d="M312 16H302V66H312V16Z" fill="black"/>
	<path d="M357 61C362.2 65.08 367.08 66 373 66C380.92 66 386 63.84 386 56C386 50 381.5 47 375.5 44.5C369.5 42 367.5 43 367.5 39C367.5 37 372.92 35.04 381 40L385 33C380.52 29.8 375.8 28 371 28C364.68 28 358 32 358 39C358 43.5 359.58 45.9 361.5 47.5C367.66 52.7 376.5 51 376.5 56C376.5 60 365 57.28 361 54L357 61Z" fill="black"/>
	<path d="M389 61C394.2 65.08 399.08 66 405 66C412.92 66 418 63.84 418 56C418 50 413.5 47 407.5 44.5C401.5 42 399.5 43 399.5 39C399.5 37 404.92 35.04 413 40L417 33C412.52 29.8 407.8 28 403 28C396.68 28 390 32 390 39C390 43.5 391.58 45.9 393.5 47.5C399.66 52.7 408.5 51 408.5 56C408.5 60 397 57.28 393 54L389 61Z" fill="black"/>
	<path d="M455 42C455 31 446 28 437 28C431.443 28 426.5 29.5 424 31C427 39 424 31 427 39C430.432 38.0194 432.669 37 437 37C437 37 445 37 445 44.5C445 44.5 442.579 43 434 43C425.174 43 421 48.5 421 55C421 62 427.28 66 433 66C441.499 66 443.938 62.5624 445 61.5V66H455V43C455 43 455 42.7355 455 42ZM437 59C434 59 431 58 431 55C431 52 433 49 438 49C441.759 49 445 50.5 445 50.5V53.5C445 53.5817 444.355 59 437 59Z" fill="black"/>
	<path d="M459 66C459 66 466.53 66 469 66C469 61.6356 469 48 469 48C471 38 481 38 481 38C481 33.718 481 28.0001 481 28.0001C481 28.0001 471 28 469 36V28H459V66Z" fill="black"/>
	<path d="M499 64C497 71 490 66 490 66L487 74C489.8 76 494.2 77 497 77C503 77 505 74 509 64C509 64 509 64 524 28H512L504 52L496 28H484L499 64Z" fill="black"/>
	<path d="M31.2 33.6001L32.48 10.5601L66 18.0001L31.2 33.6001Z" fill="url(#paint0_linear)"/>
	<path d="M31.2 33.6001L32.48 10.5601L11.28 21.3601L6 52.0001L31.2 33.6001Z" fill="url(#paint1_linear)"/>
	<path d="M73.84 42.4L80 35L66 18L31.2 33.6L6 52L28.56 78.16L66.08 47.6L73.84 42.4Z" fill="url(#paint2_linear)"/>
	<path d="M65.9998 47.5999V65.9999H43.4398L35.2798 72.6399L65.9998 65.9999L73.8398 42.3999L65.9998 47.5999Z" fill="url(#paint3_linear)"/>
	<path d="M18 18H66V66H18V18Z" fill="black"/>
	<path d="M24 57H42V60H24V57Z" fill="white"/>
	<path d="M24.0011 33.1166C23.924 28.1804 27.8575 24.0926 32.7166 24.0155C32.8708 24.0155 32.9479 24.0155 33.1022 24.0155C35.6474 23.8613 38.1926 24.8639 39.9666 26.715L37.5756 29.4916C36.4187 28.2576 34.799 27.5634 33.1022 27.4863C30.1713 27.4863 28.0118 29.9544 28.0118 32.9624V33.0395C28.0118 36.0475 30.0942 38.5156 33.1022 38.5156C35.1075 38.5156 36.3416 37.7443 37.7299 36.4331L40.1208 38.9012C38.3469 40.9836 35.6474 42.1406 32.9479 41.9863C28.0889 42.0634 24.0782 38.1299 24.0011 33.2709C24.0011 33.2709 24.0011 33.1937 24.0011 33.1166Z" fill="white"/>
	<path d="M42.0011 33.1166C41.924 28.1804 45.8575 24.0926 50.7166 24.0155C50.8708 24.0155 50.9479 24.0155 51.1022 24.0155C53.6474 23.8613 56.1926 24.8639 57.9666 26.715L55.5756 29.4916C54.4187 28.2576 52.799 27.5634 51.1022 27.4863C48.1713 27.4863 46.0118 29.9544 46.0118 32.9624V33.0395C46.0118 36.0475 48.0942 38.5156 51.1022 38.5156C53.1075 38.5156 54.3416 37.7443 55.7299 36.4331L58.1208 38.9012C56.3469 40.9836 53.6474 42.1406 50.9479 41.9863C46.0889 42.0634 42.0782 38.1299 42.0011 33.2709C42.0011 33.2709 42.0011 33.1937 42.0011 33.1166Z" fill="white"/>
	<rect x="51" y="31.2598" width="7.11" height="3.48" fill="white"/>
	<rect x="54.5098" y="33" width="3.6" height="5.88" fill="white"/>
	<defs>
		<linearGradient id="paint0_linear" x1="31.208" y1="22.1012" x2="71.2239" y2="22.1012" gradientUnits="userSpaceOnUse">
			<stop offset="0.0955866" stop-color="#ECCB45"/>
			<stop offset="0.9" stop-color="#E32581"/>
		</linearGradient>
		<linearGradient id="paint1_linear" x1="20.9461" y1="42.8319" x2="13.9794" y2="-3.91258" gradientUnits="userSpaceOnUse">
			<stop offset="0.0955308" stop-color="#9D25AE"/>
			<stop offset="0.9168" stop-color="#CA5C59"/>
		</linearGradient>
		<linearGradient id="paint2_linear" x1="66.967" y1="18.7424" x2="2.92534" y2="86.3781" gradientUnits="userSpaceOnUse">
			<stop offset="0.0955866" stop-color="#ECCB45"/>
			<stop offset="0.9" stop-color="#E32581"/>
		</linearGradient>
		<linearGradient id="paint3_linear" x1="48.6351" y1="56.6852" x2="69.7919" y2="59.6957" gradientUnits="userSpaceOnUse">
			<stop offset="0.0955308" stop-color="#9D25AE"/>
			<stop offset="0.9168" stop-color="#CA5C59"/>
		</linearGradient>
	</defs>
</svg>
