<?xml version="1.0" encoding="utf-8"?>
<!-- Generator: Adobe Illustrator 24.3.0, SVG Export Plug-In . SVG Version: 6.00 Build 0)  -->
<svg version="1.1" id="Слой_1" xmlns="http://www.w3.org/2000/svg" xmlns:xlink="http://www.w3.org/1999/xlink" x="0px" y="0px"
	 viewBox="0 0 105 105" style="enable-background:new 0 0 105 105;" xml:space="preserve">
<style type="text/css">
	.st0{fill:url(#SVGID_1_);}
	.st1{fill:url(#SVGID_2_);}
	.st2{fill:url(#SVGID_3_);}
	.st3{fill:url(#SVGID_4_);}
	.st4{fill:#FFFFFF;}
	.st5{fill:none;}
</style>
<linearGradient id="SVGID_1_" gradientUnits="userSpaceOnUse" x1="39.01" y1="78.3736" x2="89.0299" y2="78.3736" gradientTransform="matrix(1 0 0 -1 0 106)">
	<stop  offset="9.558660e-02" style="stop-color:#ECCB45"/>
	<stop  offset="0.9" style="stop-color:#E32581"/>
</linearGradient>
<path class="st0" d="M39,42l1.6-28.8l41.9,9.3L39,42z"/>
<linearGradient id="SVGID_2_" gradientUnits="userSpaceOnUse" x1="26.1826" y1="52.4602" x2="17.4742" y2="110.8908" gradientTransform="matrix(1 0 0 -1 0 106)">
	<stop  offset="9.553076e-02" style="stop-color:#9D25AE"/>
	<stop  offset="0.9168" style="stop-color:#CA5C59"/>
</linearGradient>
<path class="st1" d="M39,42l1.6-28.8L14.1,26.7L7.5,65L39,42z"/>
<linearGradient id="SVGID_3_" gradientUnits="userSpaceOnUse" x1="83.7088" y1="82.572" x2="3.6567" y2="-1.9726" gradientTransform="matrix(1 0 0 -1 0 106)">
	<stop  offset="9.558660e-02" style="stop-color:#ECCB45"/>
	<stop  offset="0.9" style="stop-color:#E32581"/>
</linearGradient>
<path class="st2" d="M92.3,53l8.1-8.2L82.5,22.5L39,42L7.5,65l28.2,32.7l46.9-38.2L92.3,53z"/>
<linearGradient id="SVGID_4_" gradientUnits="userSpaceOnUse" x1="60.7942" y1="35.1434" x2="87.2401" y2="31.3802" gradientTransform="matrix(1 0 0 -1 0 106)">
	<stop  offset="9.553076e-02" style="stop-color:#9D25AE"/>
	<stop  offset="0.9168" style="stop-color:#CA5C59"/>
</linearGradient>
<path class="st3" d="M82.5,59.5v23H54.3l-10.2,8.3l38.4-8.3L92.3,53L82.5,59.5z"/>
<path d="M22.5,22.5h60v60h-60V22.5z"/>
<g>
	<path class="st4" d="M30,71.2h22.5v3.8H30V71.2z"/>
	<path class="st4" d="M52.5,29.9"/>
	<path class="st4" d="M28.4,41.4L28.4,41.4c-0.1-6.4,5-11.7,11.3-11.8c0.2,0,0.3,0,0.5,0c3.3-0.2,6.6,1.1,8.9,3.5L46,36.7
		c-1.5-1.6-3.6-2.5-5.8-2.6c-3.8,0-6.6,3.2-6.6,7.1v0.1c0,3.9,2.7,7.1,6.6,7.1c2.6,0,4.2-1,6-2.7l3.1,3.2c-2.3,2.7-5.8,4.2-9.3,4
		c-6.3,0.1-11.5-5-11.6-11.3C28.4,41.6,28.4,41.5,28.4,41.4"/>
</g>
<path class="st4" d="M51.4,41.4L51.4,41.4c-0.1-6.4,5-11.7,11.3-11.8c0.2,0,0.3,0,0.5,0c3.3-0.2,6.6,1.1,8.9,3.5L69,36.7
	c-1.5-1.6-3.6-2.5-5.8-2.6c-3.8,0-6.6,3.2-6.6,7.1v0.1c0,3.9,2.7,7.1,6.6,7.1c2.6,0,4.2-1,6-2.7l3.5,3.1c-2.3,2.7-6.1,4.3-9.6,4.2
	c-6.3,0.1-11.5-5-11.6-11.3C51.4,41.6,51.4,41.5,51.4,41.4"/>
<polyline class="st4" points="68,46.8 67.9,43.9 63.1,43.9 63.1,39.9 72.6,40 72.6,48.8 "/>
<rect class="st5" width="105" height="105"/>
</svg>
