<?xml version="1.0" encoding="utf-8"?>
<!-- Generator: Adobe Illustrator 24.3.0, SVG Export Plug-In . SVG Version: 6.00 Build 0)  -->
<svg version="1.1" id="Слой_1" xmlns="http://www.w3.org/2000/svg" xmlns:xlink="http://www.w3.org/1999/xlink" x="0px" y="0px"
	 viewBox="0 0 705 105" style="enable-background:new 0 0 705 105;" xml:space="preserve">
<style type="text/css">
	.st0{fill:#FFFFFF;}
	.st1{fill:none;}
</style>
<image style="display:none;overflow:visible;opacity:0.25;" width="1830" height="601" xlink:href="../My New Texture Pack/CONC/Datalore.png"  transform="matrix(0.2473 0 0 0.2473 220.4312 0)">
</image>
<image style="display:none;overflow:visible;opacity:0.21;" width="1980" height="601" xlink:href="../My New Texture Pack/CONC/Upsource.png"  transform="matrix(0.2478 0 0 0.2478 238.565 0)">
</image>
<image style="display:none;overflow:visible;opacity:0.5;" width="2370" height="601" xlink:href="../My New Texture Pack/CONC/dotMemory.png"  transform="matrix(0.2581 0 0 0.2473 68.9707 -0.1481)">
</image>
<path d="M22.2,22.2h60v60h-60V22.2z"/>
<g>
	<path class="st0" d="M29.7,70.9h22.5v3.8H29.7V70.9z"/>
	<path class="st0" d="M52.3,29.7"/>
	<path class="st0" d="M28.1,41.1L28.1,41.1c-0.1-6.4,5-11.7,11.3-11.8c0.2,0,0.3,0,0.5,0c3.3-0.2,6.6,1.1,8.9,3.5l-3.2,3.7
		c-1.5-1.6-3.6-2.5-5.8-2.6c-3.8,0-6.6,3.2-6.6,7.1V41c0,3.9,2.7,7.1,6.6,7.1c2.6,0,4.2-1,6-2.7l3.1,3.2c-2.3,2.7-5.8,4.2-9.3,4
		c-6.3,0.1-11.5-5-11.6-11.3C28.1,41.3,28.1,41.2,28.1,41.1"/>
</g>
<path class="st0" d="M51.1,41.1L51.1,41.1c-0.1-6.4,5-11.7,11.3-11.8c0.2,0,0.3,0,0.5,0c3.3-0.2,6.6,1.1,8.9,3.5l-3.2,3.7
	c-1.5-1.6-3.6-2.5-5.8-2.6c-3.8,0-6.6,3.2-6.6,7.1V41c0,3.9,2.7,7.1,6.6,7.1c2.6,0,4.2-1,6-2.7l3.5,3.1c-2.3,2.7-6.1,4.3-9.6,4.2
	c-6.3,0.1-11.5-5-11.6-11.3C51.1,41.3,51.1,41.2,51.1,41.1"/>
<polyline class="st0" points="67.7,46.5 67.7,43.6 62.8,43.6 62.8,39.6 72.4,39.7 72.4,48.6 "/>
<rect x="-25.3" y="-0.3" class="st1" width="698.4" height="105"/>
<path d="M147.1,40.5l8.2-9.7c-1-1-7.8-9-23.1-9c-16.9,0-30.5,11.3-30.5,30.7c0,18.2,13.2,30.5,30.5,30.5c13.6,0,23.5-10.2,23.5-10.2
	c0-0.2-8.2-8.9-8.2-8.9s-5.4,7-16,7c-10,0-16.6-8.8-16.6-18.4c0-10.3,6.8-18.6,17.4-18.8C140.7,33.5,147.1,40.5,147.1,40.5z"/>
<path d="M181.1,35.7c-13.1,0-24.4,10.6-24.4,23.7S168,83,181.1,83s24.4-10.6,24.4-23.7C205.5,44.9,194.1,35.7,181.1,35.7z
	 M181.1,72.1c-7,0-11.9-5.7-11.9-12.7c0-7,4.9-12.7,11.9-12.7c7,0,11.8,5.7,11.8,12.7C192.9,66.4,188.1,72.1,181.1,72.1z"/>
<rect x="244.4" y="20.1" width="12.6" height="61.7"/>
<path d="M230.1,35.7c-11.2,0-20.2,8.3-20.2,23.7c0,14.5,9.1,23.7,20.2,23.7c11.2,0,20.6-12.6,20.6-22.8
	C250.7,47.2,241.3,35.7,230.1,35.7z M233.1,72.1c-6,0-10.8-5.7-10.8-12.7s4.8-12.7,10.8-12.7c7.4,0,11.3,5.7,11.3,12.7
	S240.1,72.1,233.1,72.1z"/>
<path d="M285.8,72.6c-9.8-0.1-10.9-8.8-10.9-8.8l31.6-0.1c0-0.7,0-1.7,0-2.9c0-1.3,0-2.2,0-2.3c0-11.5-8-22.9-21.7-22.9
	c-0.5,0-1,0-1.2,0c-12.4,0-21.2,9.8-21.2,23.6c0,14.2,10.1,23.7,22.6,23.7c7.7,0,14.9-2.6,19.1-8.6l-7.1-6.4
	C296.9,68,292.5,72.7,285.8,72.6z M284.3,45.9c5.6,0,9.9,5.2,9.9,9.8h-19.4C274.7,51.1,279,45.9,284.3,45.9z"/>
<path d="M344.3,47.8v11.2h13v8.8c0,0-4.3,3.2-12.8,3.2c-10,0-17.6-8.9-17.6-18.6c0-10.3,6.8-18.7,17.4-18.9
	c8.5-0.2,15.4,5.9,15.4,5.9l8.3-9.6c-1-1-7.9-8.3-23.2-8.3c-16.9,0-31.3,11.6-31.3,30.9c0,18.2,14.5,30.6,31.8,30.6
	c14.6,0,24.9-9.4,24.9-9.4V47.8H344.3z"/>
<rect x="374.8" y="20.1" width="12.6" height="61.7"/>
<path d="M416.4,35.7c-13.1,0-24.4,10.6-24.4,23.7S403.4,83,416.4,83s24.4-10.6,24.4-23.7C440.9,44.9,429.5,35.7,416.4,35.7z
	 M416.4,72.1c-7,0-11.9-5.7-11.9-12.7c0-7,4.9-12.7,11.9-12.7c7,0,11.8,5.7,11.8,12.7C428.2,66.4,423.5,72.1,416.4,72.1z"/>
<path d="M441.8,75.6c6.5,5.1,12.9,6.8,20.3,6.8c9.9,0,16.4-4.9,16.4-14.7c0-6.5-4.7-10.6-12.9-13.2c-8.1-2.6-10.1-3.6-10.1-6
	c0-3,7.1-5,17.2,1.2l4.9-8.8c-5.6-4-12-5.3-18-5.3c-7.9,0-15.4,5.5-15.4,14.6c0,5,1.5,7.1,3.9,9.1c7.7,6.5,21,5.7,18.8,11.2
	c-1.9,4.9-14.6,1.1-19.6-3L441.8,75.6z"/>
<path d="M481.8,75.6c6.5,5.1,12.9,6.8,20.3,6.8c9.9,0,16.4-4.9,16.4-14.7c0-6.5-4.7-10.6-12.9-13.2c-8.1-2.6-10.1-3.6-10.1-6
	c0-3,7.1-5,17.2,1.2l4.9-8.8c-5.6-4-12-5.3-18-5.3c-7.9,0-15.4,5.5-15.4,14.6c0,5,1.5,7.1,3.9,9.1c7.7,6.5,21,5.7,18.8,11.2
	c-1.9,4.9-14.5,1.1-19.5-3L481.8,75.6z"/>
<path d="M563.1,53c0-13.3-10.6-17.4-20.3-17.4c-6.8,0-12.3,1.4-15.3,2.9l-1.7,0.7c1,3.3,2.1,6.5,3.1,9.8c4.2-1.2,7.5-2.4,12.8-2.4
	c0,0,9-0.7,9,9c0,0-4.9-1.7-13.6-1.7c-10.8,0-15.2,6.9-15.2,14.8c0,8.7,7.3,13.4,14.3,13.4c10.4,0,13.2-4.1,14.5-5.4l0,4.9h12.3
	V53.9C563.1,53.9,563.1,53.9,563.1,53z M541.1,73.4c-3.4,0-6.8-1.9-6.8-5.6c0-3.5,3-6.4,8.4-6.4c4.6,0,8.4,1.8,8.4,1.8l0.1,3.3
	C551.2,66.6,550.1,73.4,541.1,73.4z"/>
<path d="M568.3,81.6c0,0,9.6,0,12.6,0c0-5.3,0-9.2,0-19c0-9.4,6.6-14,14.3-14c0-5.2,0-13,0-13s-9.2-2.1-14.1,9.6v-9h-12.7
	L568.3,81.6z"/>
<path d="M617.4,81.4c-1.7,5.8-10.3,1.7-10.3,1.7l-4.4,9.2c3.5,2.5,8.1,2.9,11.6,2.9c7.1,0,10.7-1.4,13.8-8.5c0,0,0,0,20.1-50.4
	h-13.9l-10.5,30.6L613,36.3h-14.1L617.4,81.4z"/>
</svg>
