<svg width="64" height="64" viewBox="0 0 64 64" fill="none" xmlns="http://www.w3.org/2000/svg">
    <path fill-rule="evenodd" clip-rule="evenodd" d="M4 64H64V36H4V64Z" fill="#9AA7B0" fill-opacity="0.8"/>
    <path fill-rule="evenodd" clip-rule="evenodd" d="M28 4L12 20H28V4Z" fill="#9AA7B0" fill-opacity="0.8"/>
    <path fill-rule="evenodd" clip-rule="evenodd" d="M32 4V24H12V32H52V4H32Z" fill="#9AA7B0" fill-opacity="0.8"/>
    <path fill-rule="evenodd" clip-rule="evenodd" d="M36 60H12V53.3334C12 53.3334 19.0752 47.0144 22.2857 50C26.251 53.2447 30.9509 55.5293 36 56.6667V60Z" fill="#231F20" fill-opacity="0.7"/>
    <path fill-rule="evenodd" clip-rule="evenodd" d="M12 40H36V53.3333C30.9508 52.1963 26.2509 49.9116 22.2857 46.6667C19.0748 43.6816 12 50 12 50V40ZM30 48C31.1046 48 32 47.1046 32 46C32 44.8954 31.1046 44 30 44C28.8954 44 28 44.8954 28 46C28 47.1046 28.8954 48 30 48Z" fill="#231F20" fill-opacity="0.7"/>
    <path d="M52 40H47V52.5H52V40Z" fill="#231F20" fill-opacity="0.7"/>
    <path d="M52 55H47V60H52V55Z" fill="#231F20" fill-opacity="0.7"/>
</svg>
