<svg width="32" height="32" viewBox="0 0 32 32" fill="none" xmlns="http://www.w3.org/2000/svg">
    <path d="M4.33057 15.6875C4.33057 14.7969 4.93995 14.1875 5.84621 14.1875H20.5336L23.1586 14.2969L19.3774 10.9219L17.0962 8.59374C16.8149 8.32812 16.6587 7.95312 16.6587 7.53124C16.6587 6.71874 17.2681 6.10938 18.0962 6.10938C18.5024 6.10938 18.8618 6.25 19.1899 6.57812L27.2056 14.5625C27.518 14.875 27.69 15.2656 27.69 15.6875C27.69 16.0938 27.518 16.4844 27.2056 16.7969L19.1899 24.7812C18.8618 25.0938 18.5024 25.25 18.0962 25.25C17.2681 25.25 16.6587 24.6406 16.6587 23.8282C16.6587 23.4062 16.8149 23.0312 17.0962 22.7656L19.3774 20.4374L23.1744 17.0625L20.5336 17.1719H5.84621C4.93995 17.1719 4.33057 16.5625 4.33057 15.6875Z" fill="#AFB1B3"/>
</svg>
