<svg width="28" height="28" viewBox="0 0 28 28" fill="none" xmlns="http://www.w3.org/2000/svg">
    <path fill-rule="evenodd" clip-rule="evenodd" d="M13.9987 0C6.26882 0 0 6.42659 0 14.3547C0 20.6967 4.01105 26.0765 9.57426 27.9746C10.2747 28.1067 10.53 27.6635 10.53 27.2828C10.53 26.9427 10.5179 26.0394 10.5111 24.8419C6.6169 25.709 5.79527 22.9174 5.79527 22.9174C5.15841 21.2589 4.24052 20.8175 4.24052 20.8175C2.9694 19.9274 4.33678 19.9451 4.33678 19.9451C5.74198 20.0464 6.48111 21.4246 6.48111 21.4246C7.72989 23.6179 9.75819 22.9843 10.5558 22.6169C10.683 21.6898 11.0448 21.0571 11.4444 20.6985C8.3358 20.3363 5.06731 19.1044 5.06731 13.604C5.06731 12.0372 5.61306 10.755 6.50861 9.75224C6.36422 9.38918 5.88379 7.92903 6.64612 5.95338C6.64612 5.95338 7.82099 5.56742 10.4956 7.42499C11.612 7.10599 12.8101 6.94738 14.0004 6.94121C15.1899 6.94738 16.3871 7.10599 17.5053 7.42499C20.1782 5.56742 21.3513 5.95338 21.3513 5.95338C22.1154 7.92903 21.6349 9.38918 21.4914 9.75224C22.3887 10.755 22.9301 12.0372 22.9301 13.604C22.9301 19.1185 19.6565 20.3319 16.5384 20.687C17.0403 21.1303 17.4881 22.0062 17.4881 23.3456C17.4881 25.264 17.4709 26.8123 17.4709 27.2828C17.4709 27.667 17.7236 28.1138 18.4335 27.9737C23.9924 26.0712 28 20.695 28 14.3547C28 6.42659 21.7312 0 13.9987 0Z" fill="#87939A"/>
</svg>
