<svg width="28" height="28" viewBox="0 0 28 28" fill="none" xmlns="http://www.w3.org/2000/svg">
    <path fill-rule="evenodd" clip-rule="evenodd" d="M14 1.75C7.238 1.75 1.75 7.238 1.75 14C1.75 20.762 7.238 26.25 14 26.25C20.762 26.25 26.25 20.762 26.25 14C26.25 7.238 20.762 1.75 14 1.75ZM12.775 23.7142C7.93625 23.114 4.2 18.998 4.2 14C4.2 13.2405 4.298 12.5178 4.45725 11.8073L10.325 17.675V18.9C10.325 20.2475 11.4275 21.35 12.775 21.35V23.7142ZM21.2275 20.6027C20.909 19.6105 20.0025 18.9 18.9 18.9H17.675V15.225C17.675 14.5512 17.1237 14 16.45 14H9.1V11.55H11.55C12.2238 11.55 12.775 10.9987 12.775 10.325V7.875H15.225C16.5725 7.875 17.675 6.7725 17.675 5.425V4.92275C21.2643 6.3805 23.8 9.89625 23.8 14C23.8 16.548 22.82 18.8632 21.2275 20.6027Z" fill="#87939A"/>
</svg>
