<svg width="16" height="16" viewBox="0 0 16 16" fill="none" xmlns="http://www.w3.org/2000/svg">
<path fill-rule="evenodd" clip-rule="evenodd" d="M8 9.11111C9.6575 9.11111 11 7.74375 11 6.05556C11 4.36736 9.6575 3 8 3C6.3425 3 5 4.36736 5 6.05556C5 7.74375 6.3425 9.11111 8 9.11111ZM8 10.3333C5.9975 10.3333 2 11.1522 2 12.7778V14H14V12.7778C14 11.1522 10.0025 10.3333 8 10.3333Z" fill="#9AA7B0" fill-opacity="0.8"/>
<path fill-rule="evenodd" clip-rule="evenodd" d="M9 7H16V0H9V7Z" fill="#9AA7B0"/>
<path fill-rule="evenodd" clip-rule="evenodd" d="M14 1H10V2H13.396L10.198 5.198L10.805 5.805L14 2.609V6H15V2V1H14Z" fill="#231F20" fill-opacity="0.7"/>
</svg>
