<svg width="16" height="16" viewBox="0 0 16 16" fill="none" xmlns="http://www.w3.org/2000/svg">
<path fill-rule="evenodd" clip-rule="evenodd" d="M7.98522 4L6.69722 2.711C6.30522 2.32 5.53322 2 4.97922 2H1.05122C1.02422 2 1.00122 2.023 1.00122 2.051V6H2.00122V7L3.00122 7.551V6H4.00122V7L5.00122 7.551V6H6.00122V7L7.00122 7.551V6H8.00122V7L9 7L9.00122 6H10.0012L10 4H12L12.0012 6V7L12 4L14.0012 4V6V7L15.0012 7.551V6V4H7.98522Z" fill="#9AA7B0" fill-opacity="0.8"/>
<path fill-rule="evenodd" clip-rule="evenodd" d="M14 11.5L13 12.5L12.5 13H11.5L10.5 12L9 10.5L8 9.5L7 8.5V9.00004H6V8.24504L5 7.57104V9.00004H4V8.24504L3 7.57104V9.00004H2V8.24504L1 7.57104V9.00004V13H15V10.5L14 11.5Z" fill="#9AA7B0" fill-opacity="0.8"/>
<path fill-rule="evenodd" clip-rule="evenodd" d="M11 8H8L12 12L16 8H13V3H11V8Z" fill="#499C54"/>
</svg>
