<svg width="16" height="16" viewBox="0 0 16 16" fill="none" xmlns="http://www.w3.org/2000/svg">
<path fill-rule="evenodd" clip-rule="evenodd" d="M12.3653 12.1193C11.1984 13.3564 9.51588 14.092 7.68458 13.9961C4.72905 13.8412 2.38547 11.5726 2.0419 8.73184L3.89549 8.89401C4.28753 10.6992 5.84694 12.0929 7.78051 12.1942C9.08006 12.2623 10.2725 11.7322 11.0905 10.8446L9.01148 8.76558L14.0115 8.76558L14.0115 13.7655L12.3653 12.1193ZM3.63749 3.88337C4.80418 2.64985 6.48421 1.91669 8.31261 2.01251C11.2286 2.16533 13.5488 4.37562 13.9404 7.16289L12.0807 7.00019C11.6518 5.24661 10.1158 3.90511 8.22013 3.80576C6.92043 3.73765 5.72782 4.26793 4.90985 5.15571L6.99342 7.23923L1.99342 7.23923L1.99342 2.23934L3.63749 3.88337Z" fill="#AFB1B3"/>
</svg>
